<svg width="1242" height="460" viewBox="0 0 1242 460" fill="none" xmlns="http://www.w3.org/2000/svg">
<g clip-path="url(#clip0_1238_955)">
<rect width="1242" height="460" rx="25" fill="#46B654"/>
<path d="M1242 338.002C1055.62 338.002 904 186.375 904 0.00113248C904 -186.373 1055.62 -338 1242 -338C1428.37 -338 1580 -186.373 1580 0.00113248C1580 186.375 1428.37 338.002 1242 338.002ZM1242 -333.651C1058.02 -333.651 908.347 -183.975 908.347 0.00113248C908.347 183.977 1058.02 333.653 1242 333.653C1425.97 333.653 1575.65 183.977 1575.65 0.00113248C1575.65 -183.975 1425.97 -333.651 1242 -333.651Z" fill="white" fill-opacity="0.15"/>
<path d="M1242 297.261C1078.09 297.261 944.739 163.91 944.739 0.00109467C944.739 -163.908 1078.09 -297.258 1242 -297.258C1405.91 -297.258 1539.26 -163.908 1539.26 0.00109467C1539.26 163.91 1405.91 297.261 1242 297.261ZM1242 -292.912C1080.49 -292.912 949.088 -161.512 949.088 0.00109467C949.088 161.512 1080.49 292.912 1242 292.912C1403.51 292.912 1534.91 161.512 1534.91 0.00109467C1534.91 -161.512 1403.51 -292.912 1242 -292.912Z" fill="white" fill-opacity="0.15"/>
<path d="M1242 256.519C1100.55 256.519 985.481 141.446 985.481 0.00119728C985.481 -141.443 1100.55 -256.517 1242 -256.517C1383.44 -256.517 1498.52 -141.443 1498.52 0.00119728C1498.52 141.446 1383.44 256.519 1242 256.519ZM1242 -252.17C1102.95 -252.17 989.828 -139.048 989.828 0.00119728C989.828 139.05 1102.95 252.172 1242 252.172C1381.05 252.172 1494.17 139.048 1494.17 0.00119728C1494.17 -139.045 1381.05 -252.17 1242 -252.17Z" fill="white" fill-opacity="0.15"/>
<path d="M1242 215.78C1123.02 215.78 1026.22 118.981 1026.22 0.00126264C1026.22 -118.979 1123.02 -215.777 1242 -215.777C1360.98 -215.777 1457.78 -118.979 1457.78 0.00126264C1457.78 118.981 1360.98 215.78 1242 215.78ZM1242 -211.428C1125.42 -211.428 1030.57 -116.58 1030.57 0.00126264C1030.57 116.583 1125.42 211.431 1242 211.431C1358.58 211.431 1453.43 116.583 1453.43 0.00126264C1453.43 -116.58 1358.58 -211.428 1242 -211.428Z" fill="white" fill-opacity="0.15"/>
<path d="M1242 175.038C1145.48 175.038 1066.96 96.5161 1066.96 0.00105907C1066.96 -96.514 1145.48 -175.036 1242 -175.036C1338.52 -175.036 1417.04 -96.514 1417.04 0.00105907C1417.04 96.5161 1338.52 175.038 1242 175.038ZM1242 -170.687C1147.88 -170.687 1071.31 -94.1157 1071.31 0.00105907C1071.31 94.1179 1147.88 170.689 1242 170.689C1336.12 170.689 1412.69 94.1179 1412.69 0.00105907C1412.69 -94.1157 1336.12 -170.687 1242 -170.687Z" fill="white" fill-opacity="0.15"/>
<path d="M1242 134.297C1167.95 134.297 1107.7 74.0514 1107.7 0.00108743C1107.7 -74.0492 1167.95 -134.294 1242 -134.294C1316.05 -134.294 1376.29 -74.0492 1376.29 0.00108743C1376.29 74.0514 1316.05 134.297 1242 134.297ZM1242 -129.945C1170.34 -129.945 1112.05 -71.6509 1112.05 0.00108743C1112.05 71.6531 1170.34 129.948 1242 129.948C1313.65 129.948 1371.95 71.6555 1371.95 0.00108743C1371.95 -71.6533 1313.65 -129.945 1242 -129.945Z" fill="white" fill-opacity="0.15"/>
<path d="M1242 93.5574C1190.41 93.5574 1148.44 51.5889 1148.44 0.00102668C1148.44 -51.5869 1190.41 -93.5553 1242 -93.5553C1293.58 -93.5553 1335.56 -51.5845 1335.56 0.00102668C1335.56 51.5865 1293.58 93.5574 1242 93.5574ZM1242 -89.2062C1192.81 -89.2062 1152.79 -49.1886 1152.79 0.00102668C1152.79 49.1907 1192.81 89.2082 1242 89.2082C1291.19 89.2082 1331.21 49.1907 1331.21 0.00102668C1331.21 -49.1886 1291.19 -89.2062 1242 -89.2062Z" fill="white" fill-opacity="0.15"/>
<path d="M1242 52.8159C1212.88 52.8159 1189.18 29.122 1189.18 0.00123356C1189.18 -29.1195 1212.88 -52.8135 1242 -52.8135C1271.12 -52.8135 1294.81 -29.1195 1294.81 0.00123356C1294.81 29.122 1271.12 52.8159 1242 52.8159ZM1242 -48.4644C1215.27 -48.4644 1193.53 -26.7212 1193.53 0.00123356C1193.53 26.7237 1215.27 48.4668 1242 48.4668C1268.72 48.4668 1290.46 26.7261 1290.46 0.00123356C1290.46 -26.7236 1268.72 -48.4644 1242 -48.4644Z" fill="white" fill-opacity="0.15"/>
<path d="M295.409 379.043L295.409 617.245C295.409 619.478 293.599 621.288 291.366 621.288C289.133 621.288 287.323 619.478 287.323 617.245L287.323 379.043C287.323 376.81 289.133 375 291.366 375C293.599 375 295.409 376.81 295.409 379.043Z" fill="white" fill-opacity="0.15"/>
<path d="M267.771 379.043L267.771 617.245C267.771 619.478 265.961 621.288 263.728 621.288C261.495 621.288 259.685 619.478 259.685 617.245L259.685 379.043C259.685 376.81 261.495 375 263.728 375C265.961 375 267.771 376.81 267.771 379.043Z" fill="white" fill-opacity="0.15"/>
<path d="M240.13 379.043L240.13 617.245C240.13 619.478 238.32 621.288 236.087 621.288C233.854 621.288 232.044 619.478 232.044 617.245L232.044 379.043C232.044 376.81 233.854 375 236.087 375C238.32 375 240.13 376.81 240.13 379.043Z" fill="white" fill-opacity="0.15"/>
<path d="M212.492 379.043L212.492 617.245C212.492 619.478 210.682 621.288 208.449 621.288C206.216 621.288 204.406 619.478 204.406 617.245L204.406 379.043C204.406 376.81 206.216 375 208.449 375C210.682 375 212.492 376.81 212.492 379.043Z" fill="white" fill-opacity="0.15"/>
<path d="M184.851 379.043L184.851 617.245C184.851 619.478 183.04 621.288 180.807 621.288C178.575 621.288 176.764 619.478 176.764 617.245L176.764 379.043C176.764 376.81 178.574 375 180.807 375C183.04 375 184.851 376.81 184.851 379.043Z" fill="white" fill-opacity="0.15"/>
<path d="M157.209 379.043L157.209 617.245C157.209 619.478 155.399 621.288 153.166 621.288C150.933 621.288 149.123 619.478 149.123 617.245L149.123 379.043C149.123 376.81 150.933 375 153.166 375C155.399 375 157.209 376.81 157.209 379.043Z" fill="white" fill-opacity="0.15"/>
<path d="M129.568 379.043L129.568 617.245C129.568 619.478 127.758 621.288 125.525 621.288C123.292 621.288 121.482 619.478 121.482 617.245L121.482 379.043C121.482 376.81 123.292 375 125.525 375C127.758 375 129.568 376.81 129.568 379.043Z" fill="white" fill-opacity="0.15"/>
<path d="M101.93 379.043L101.93 617.245C101.93 619.478 100.12 621.288 97.8869 621.288C95.654 621.288 93.8439 619.478 93.8439 617.245L93.8439 379.043C93.8439 376.81 95.654 375 97.8869 375C100.12 375 101.93 376.81 101.93 379.043Z" fill="white" fill-opacity="0.15"/>
<path d="M74.2889 379.043L74.2889 617.245C74.2889 619.478 72.4788 621.288 70.2458 621.288C68.0129 621.288 66.2028 619.478 66.2028 617.245L66.2027 379.043C66.2027 376.81 68.0128 375 70.2458 375C72.4788 375 74.2889 376.81 74.2889 379.043Z" fill="white" fill-opacity="0.15"/>
<path d="M46.6477 379.043L46.6478 617.245C46.6478 619.478 44.8377 621.288 42.6047 621.288C40.3717 621.288 38.5616 619.478 38.5616 617.245L38.5616 379.043C38.5616 376.81 40.3717 375 42.6047 375C44.8376 375 46.6477 376.81 46.6477 379.043Z" fill="white" fill-opacity="0.15"/>
<path d="M19.0067 379.043L19.0067 617.245C19.0067 619.478 17.1965 621.288 14.9635 621.288C12.7306 621.288 10.9205 619.478 10.9205 617.245L10.9205 379.043C10.9205 376.81 12.7306 375 14.9635 375C17.1965 375 19.0067 376.81 19.0067 379.043Z" fill="white" fill-opacity="0.15"/>
<path d="M304.501 85.0702C257.316 85.0702 218.93 46.6839 218.93 -0.501354C218.93 -47.6866 257.316 -86.0729 304.501 -86.0729C351.687 -86.0729 390.073 -47.6866 390.073 -0.501354C390.073 46.6839 351.687 85.0702 304.501 85.0702ZM304.501 -78.817C261.317 -78.817 226.186 -43.6859 226.186 -0.501354C226.186 42.6832 261.319 77.8143 304.501 77.8143C347.683 77.8143 382.817 42.6806 382.817 -0.501354C382.817 -43.6833 347.686 -78.817 304.501 -78.817Z" fill="white" fill-opacity="0.15"/>
<path d="M304.114 50.89C275.564 50.89 252.339 27.664 252.339 -0.885776C252.339 -29.4356 275.564 -52.6615 304.114 -52.6615C332.664 -52.6615 355.89 -29.4356 355.89 -0.885776C355.89 27.664 332.664 50.89 304.114 50.89ZM304.114 -48.2713C277.985 -48.2713 256.729 -27.0149 256.729 -0.885776C256.729 25.2434 277.987 46.4997 304.114 46.4997C330.242 46.4997 351.5 25.2418 351.5 -0.885776C351.5 -27.0134 330.243 -48.2713 304.114 -48.2713Z" fill="white" fill-opacity="0.15"/>
<path d="M304.501 127C234.198 127 177 69.8025 177 -0.50133C177 -70.8051 234.198 -128 304.501 -128C374.805 -128 432 -70.8051 432 -0.50133C432 69.8025 374.808 127 304.501 127ZM304.501 -120.744C238.198 -120.744 184.256 -66.8018 184.256 -0.50133C184.256 65.8017 238.198 119.744 304.501 119.744C370.802 119.744 424.744 65.8017 424.744 -0.50133C424.747 -66.8044 370.804 -120.744 304.501 -120.744Z" fill="white" fill-opacity="0.15"/>
<path d="M705.018 418H537.007L453 272.5L537.007 127H705.015L789.019 272.5L705.018 418ZM547.389 400.022H694.64L768.265 272.5L694.64 144.982H547.389L473.763 272.5L547.389 400.022Z" fill="white" fill-opacity="0.15"/>
<path d="M454.596 94.54V114H451.404V100.672L445.468 114H443.256L437.292 100.672V114H434.1V94.54H437.544L444.376 109.8L451.18 94.54H454.596ZM460.415 96.528C459.837 96.528 459.351 96.332 458.959 95.94C458.567 95.548 458.371 95.0627 458.371 94.484C458.371 93.9053 458.567 93.42 458.959 93.028C459.351 92.636 459.837 92.44 460.415 92.44C460.975 92.44 461.451 92.636 461.843 93.028C462.235 93.42 462.431 93.9053 462.431 94.484C462.431 95.0627 462.235 95.548 461.843 95.94C461.451 96.332 460.975 96.528 460.415 96.528ZM461.983 98.572V114H458.791V98.572H461.983ZM469.366 93.28V114H466.174V93.28H469.366ZM472.493 106.216C472.493 104.667 472.81 103.295 473.445 102.1C474.098 100.905 474.976 99.9813 476.077 99.328C477.197 98.656 478.429 98.32 479.773 98.32C480.986 98.32 482.041 98.5627 482.937 99.048C483.852 99.5147 484.58 100.103 485.121 100.812V98.572H488.341V114H485.121V111.704C484.58 112.432 483.842 113.039 482.909 113.524C481.976 114.009 480.912 114.252 479.717 114.252C478.392 114.252 477.178 113.916 476.077 113.244C474.976 112.553 474.098 111.601 473.445 110.388C472.81 109.156 472.493 107.765 472.493 106.216ZM485.121 106.272C485.121 105.208 484.897 104.284 484.449 103.5C484.02 102.716 483.45 102.119 482.741 101.708C482.032 101.297 481.266 101.092 480.445 101.092C479.624 101.092 478.858 101.297 478.149 101.708C477.44 102.1 476.861 102.688 476.413 103.472C475.984 104.237 475.769 105.152 475.769 106.216C475.769 107.28 475.984 108.213 476.413 109.016C476.861 109.819 477.44 110.435 478.149 110.864C478.877 111.275 479.642 111.48 480.445 111.48C481.266 111.48 482.032 111.275 482.741 110.864C483.45 110.453 484.02 109.856 484.449 109.072C484.897 108.269 485.121 107.336 485.121 106.272ZM491.47 106.216C491.47 104.667 491.787 103.295 492.422 102.1C493.075 100.905 493.952 99.9813 495.054 99.328C496.174 98.656 497.415 98.32 498.778 98.32C499.786 98.32 500.775 98.544 501.746 98.992C502.735 99.4213 503.519 100 504.098 100.728V93.28H507.318V114H504.098V111.676C503.575 112.423 502.847 113.039 501.914 113.524C500.999 114.009 499.944 114.252 498.75 114.252C497.406 114.252 496.174 113.916 495.054 113.244C493.952 112.553 493.075 111.601 492.422 110.388C491.787 109.156 491.47 107.765 491.47 106.216ZM504.098 106.272C504.098 105.208 503.874 104.284 503.426 103.5C502.996 102.716 502.427 102.119 501.718 101.708C501.008 101.297 500.243 101.092 499.422 101.092C498.6 101.092 497.835 101.297 497.126 101.708C496.416 102.1 495.838 102.688 495.39 103.472C494.96 104.237 494.746 105.152 494.746 106.216C494.746 107.28 494.96 108.213 495.39 109.016C495.838 109.819 496.416 110.435 497.126 110.864C497.854 111.275 498.619 111.48 499.422 111.48C500.243 111.48 501.008 111.275 501.718 110.864C502.427 110.453 502.996 109.856 503.426 109.072C503.874 108.269 504.098 107.336 504.098 106.272ZM529.508 114L521.976 105.292V114H518.784V94.54H521.976V103.416L529.536 94.54H533.54L525.084 104.284L533.68 114H529.508ZM550.642 105.908C550.642 106.487 550.605 107.009 550.53 107.476H538.742C538.836 108.708 539.293 109.697 540.114 110.444C540.936 111.191 541.944 111.564 543.138 111.564C544.856 111.564 546.069 110.845 546.778 109.408H550.222C549.756 110.827 548.906 111.993 547.674 112.908C546.461 113.804 544.949 114.252 543.138 114.252C541.664 114.252 540.338 113.925 539.162 113.272C538.005 112.6 537.09 111.667 536.418 110.472C535.765 109.259 535.438 107.859 535.438 106.272C535.438 104.685 535.756 103.295 536.39 102.1C537.044 100.887 537.949 99.9533 539.106 99.3C540.282 98.6467 541.626 98.32 543.138 98.32C544.594 98.32 545.892 98.6373 547.03 99.272C548.169 99.9067 549.056 100.803 549.69 101.96C550.325 103.099 550.642 104.415 550.642 105.908ZM547.31 104.9C547.292 103.724 546.872 102.781 546.05 102.072C545.229 101.363 544.212 101.008 542.998 101.008C541.897 101.008 540.954 101.363 540.17 102.072C539.386 102.763 538.92 103.705 538.77 104.9H547.31ZM565.628 102.52V105.208H554.12V102.52H565.628ZM582.903 96.332H573.523V101.904C573.915 101.381 574.493 100.943 575.258 100.588C576.043 100.233 576.873 100.056 577.751 100.056C579.319 100.056 580.588 100.392 581.559 101.064C582.548 101.736 583.248 102.585 583.659 103.612C584.088 104.639 584.303 105.721 584.303 106.86C584.303 108.241 584.032 109.473 583.49 110.556C582.968 111.62 582.175 112.46 581.111 113.076C580.065 113.692 578.777 114 577.247 114C575.212 114 573.579 113.496 572.347 112.488C571.115 111.48 570.377 110.145 570.135 108.484H573.243C573.448 109.361 573.905 110.061 574.615 110.584C575.324 111.088 576.211 111.34 577.275 111.34C578.6 111.34 579.589 110.939 580.243 110.136C580.915 109.333 581.251 108.269 581.251 106.944C581.251 105.6 580.915 104.573 580.243 103.864C579.571 103.136 578.581 102.772 577.275 102.772C576.36 102.772 575.585 103.005 574.951 103.472C574.335 103.92 573.887 104.536 573.607 105.32H570.583V93.532H582.903V96.332Z" fill="white"/>
<path d="M435.32 164V136H447.44C449.947 136 452.107 136.413 453.92 137.24C455.733 138.04 457.133 139.2 458.12 140.72C459.107 142.24 459.6 144.053 459.6 146.16C459.6 148.24 459.107 150.04 458.12 151.56C457.133 153.053 455.733 154.2 453.92 155C452.107 155.8 449.947 156.2 447.44 156.2H438.92L441.8 153.36V164H435.32ZM453.12 164L446.12 153.84H453.04L460.12 164H453.12ZM441.8 154.08L438.92 151.04H447.08C449.08 151.04 450.573 150.613 451.56 149.76C452.547 148.88 453.04 147.68 453.04 146.16C453.04 144.613 452.547 143.413 451.56 142.56C450.573 141.707 449.08 141.28 447.08 141.28H438.92L441.8 138.2V154.08ZM477.099 164V159.8L476.699 158.88V151.36C476.699 150.027 476.285 148.987 475.459 148.24C474.659 147.493 473.419 147.12 471.739 147.12C470.592 147.12 469.459 147.307 468.339 147.68C467.245 148.027 466.312 148.507 465.539 149.12L463.299 144.76C464.472 143.933 465.885 143.293 467.539 142.84C469.192 142.387 470.872 142.16 472.579 142.16C475.859 142.16 478.405 142.933 480.219 144.48C482.032 146.027 482.939 148.44 482.939 151.72V164H477.099ZM470.539 164.32C468.859 164.32 467.419 164.04 466.219 163.48C465.019 162.893 464.099 162.107 463.459 161.12C462.819 160.133 462.499 159.027 462.499 157.8C462.499 156.52 462.805 155.4 463.419 154.44C464.059 153.48 465.059 152.733 466.419 152.2C467.779 151.64 469.552 151.36 471.739 151.36H477.459V155H472.419C470.952 155 469.939 155.24 469.379 155.72C468.845 156.2 468.579 156.8 468.579 157.52C468.579 158.32 468.885 158.96 469.499 159.44C470.139 159.893 471.005 160.12 472.099 160.12C473.139 160.12 474.072 159.88 474.899 159.4C475.725 158.893 476.325 158.16 476.699 157.2L477.659 160.08C477.205 161.467 476.379 162.52 475.179 163.24C473.979 163.96 472.432 164.32 470.539 164.32ZM488.386 164V142.48H494.626V164H488.386ZM491.506 139.48C490.36 139.48 489.426 139.147 488.706 138.48C487.986 137.813 487.626 136.987 487.626 136C487.626 135.013 487.986 134.187 488.706 133.52C489.426 132.853 490.36 132.52 491.506 132.52C492.653 132.52 493.586 132.84 494.306 133.48C495.026 134.093 495.386 134.893 495.386 135.88C495.386 136.92 495.026 137.787 494.306 138.48C493.613 139.147 492.68 139.48 491.506 139.48ZM513.298 142.16C515.004 142.16 516.524 142.507 517.858 143.2C519.218 143.867 520.284 144.907 521.058 146.32C521.831 147.707 522.218 149.493 522.218 151.68V164H515.978V152.64C515.978 150.907 515.591 149.627 514.818 148.8C514.071 147.973 513.004 147.56 511.618 147.56C510.631 147.56 509.738 147.773 508.938 148.2C508.164 148.6 507.551 149.227 507.098 150.08C506.671 150.933 506.458 152.027 506.458 153.36V164H500.218V134.32H506.458V148.44L505.058 146.64C505.831 145.2 506.938 144.093 508.378 143.32C509.818 142.547 511.458 142.16 513.298 142.16ZM527.674 164V134.32H533.914V164H527.674ZM552.705 164V159.8L552.305 158.88V151.36C552.305 150.027 551.892 148.987 551.065 148.24C550.265 147.493 549.025 147.12 547.345 147.12C546.198 147.12 545.065 147.307 543.945 147.68C542.852 148.027 541.918 148.507 541.145 149.12L538.905 144.76C540.078 143.933 541.492 143.293 543.145 142.84C544.798 142.387 546.478 142.16 548.185 142.16C551.465 142.16 554.012 142.933 555.825 144.48C557.638 146.027 558.545 148.44 558.545 151.72V164H552.705ZM546.145 164.32C544.465 164.32 543.025 164.04 541.825 163.48C540.625 162.893 539.705 162.107 539.065 161.12C538.425 160.133 538.105 159.027 538.105 157.8C538.105 156.52 538.412 155.4 539.025 154.44C539.665 153.48 540.665 152.733 542.025 152.2C543.385 151.64 545.158 151.36 547.345 151.36H553.065V155H548.025C546.558 155 545.545 155.24 544.985 155.72C544.452 156.2 544.185 156.8 544.185 157.52C544.185 158.32 544.492 158.96 545.105 159.44C545.745 159.893 546.612 160.12 547.705 160.12C548.745 160.12 549.678 159.88 550.505 159.4C551.332 158.893 551.932 158.16 552.305 157.2L553.265 160.08C552.812 161.467 551.985 162.52 550.785 163.24C549.585 163.96 548.038 164.32 546.145 164.32ZM577.073 142.16C578.779 142.16 580.299 142.507 581.633 143.2C582.993 143.867 584.059 144.907 584.833 146.32C585.606 147.707 585.993 149.493 585.993 151.68V164H579.753V152.64C579.753 150.907 579.366 149.627 578.593 148.8C577.846 147.973 576.779 147.56 575.393 147.56C574.406 147.56 573.513 147.773 572.713 148.2C571.939 148.6 571.326 149.227 570.873 150.08C570.446 150.933 570.233 152.027 570.233 153.36V164H563.993V134.32H570.233V148.44L568.833 146.64C569.606 145.2 570.713 144.093 572.153 143.32C573.593 142.547 575.233 142.16 577.073 142.16ZM608.817 157.6L608.457 150.12L621.857 136H629.057L616.977 149L613.377 152.84L608.817 157.6ZM603.017 164V136H609.457V164H603.017ZM622.177 164L612.217 151.8L616.457 147.2L629.737 164H622.177ZM641.768 164.32C639.314 164.32 637.154 163.84 635.288 162.88C633.448 161.92 632.021 160.613 631.008 158.96C629.994 157.28 629.488 155.373 629.488 153.24C629.488 151.08 629.981 149.173 630.968 147.52C631.981 145.84 633.354 144.533 635.088 143.6C636.821 142.64 638.781 142.16 640.968 142.16C643.074 142.16 644.968 142.613 646.648 143.52C648.354 144.4 649.701 145.68 650.688 147.36C651.674 149.013 652.168 151 652.168 153.32C652.168 153.56 652.154 153.84 652.128 154.16C652.101 154.453 652.074 154.733 652.048 155H634.568V151.36H648.768L646.368 152.44C646.368 151.32 646.141 150.347 645.688 149.52C645.234 148.693 644.608 148.053 643.808 147.6C643.008 147.12 642.074 146.88 641.008 146.88C639.941 146.88 638.994 147.12 638.168 147.6C637.368 148.053 636.741 148.707 636.288 149.56C635.834 150.387 635.608 151.373 635.608 152.52V153.48C635.608 154.653 635.861 155.693 636.368 156.6C636.901 157.48 637.634 158.16 638.568 158.64C639.528 159.093 640.648 159.32 641.928 159.32C643.074 159.32 644.074 159.147 644.928 158.8C645.808 158.453 646.608 157.933 647.328 157.24L650.648 160.84C649.661 161.96 648.421 162.827 646.928 163.44C645.434 164.027 643.714 164.32 641.768 164.32ZM683.682 142.16C685.389 142.16 686.896 142.507 688.202 143.2C689.536 143.867 690.576 144.907 691.322 146.32C692.096 147.707 692.482 149.493 692.482 151.68V164H686.242V152.64C686.242 150.907 685.882 149.627 685.162 148.8C684.442 147.973 683.429 147.56 682.122 147.56C681.216 147.56 680.402 147.773 679.682 148.2C678.962 148.6 678.402 149.213 678.002 150.04C677.602 150.867 677.402 151.92 677.402 153.2V164H671.162V152.64C671.162 150.907 670.802 149.627 670.082 148.8C669.389 147.973 668.389 147.56 667.082 147.56C666.176 147.56 665.362 147.773 664.642 148.2C663.922 148.6 663.362 149.213 662.962 150.04C662.562 150.867 662.362 151.92 662.362 153.2V164H656.122V142.48H662.082V148.36L660.962 146.64C661.709 145.173 662.762 144.067 664.122 143.32C665.509 142.547 667.082 142.16 668.842 142.16C670.816 142.16 672.536 142.667 674.002 143.68C675.496 144.667 676.482 146.187 676.962 148.24L674.762 147.64C675.482 145.96 676.629 144.627 678.202 143.64C679.802 142.653 681.629 142.16 683.682 142.16ZM706.955 164.32C705.169 164.32 703.569 163.973 702.155 163.28C700.769 162.587 699.689 161.533 698.915 160.12C698.142 158.68 697.755 156.853 697.755 154.64V142.48H703.995V153.72C703.995 155.507 704.369 156.827 705.115 157.68C705.889 158.507 706.969 158.92 708.355 158.92C709.315 158.92 710.169 158.72 710.915 158.32C711.662 157.893 712.249 157.253 712.675 156.4C713.102 155.52 713.315 154.427 713.315 153.12V142.48H719.555V164H713.635V158.08L714.715 159.8C713.995 161.293 712.929 162.427 711.515 163.2C710.129 163.947 708.609 164.32 706.955 164.32ZM725.136 164V134.32H731.376V164H725.136ZM736.967 164V142.48H743.207V164H736.967ZM740.087 139.48C738.941 139.48 738.007 139.147 737.287 138.48C736.567 137.813 736.207 136.987 736.207 136C736.207 135.013 736.567 134.187 737.287 133.52C738.007 132.853 738.941 132.52 740.087 132.52C741.234 132.52 742.167 132.84 742.887 133.48C743.607 134.093 743.967 134.893 743.967 135.88C743.967 136.92 743.607 137.787 742.887 138.48C742.194 139.147 741.261 139.48 740.087 139.48ZM761.999 164V159.8L761.599 158.88V151.36C761.599 150.027 761.185 148.987 760.359 148.24C759.559 147.493 758.319 147.12 756.639 147.12C755.492 147.12 754.359 147.307 753.239 147.68C752.145 148.027 751.212 148.507 750.439 149.12L748.199 144.76C749.372 143.933 750.785 143.293 752.439 142.84C754.092 142.387 755.772 142.16 757.479 142.16C760.759 142.16 763.305 142.933 765.119 144.48C766.932 146.027 767.839 148.44 767.839 151.72V164H761.999ZM755.439 164.32C753.759 164.32 752.319 164.04 751.119 163.48C749.919 162.893 748.999 162.107 748.359 161.12C747.719 160.133 747.399 159.027 747.399 157.8C747.399 156.52 747.705 155.4 748.319 154.44C748.959 153.48 749.959 152.733 751.319 152.2C752.679 151.64 754.452 151.36 756.639 151.36H762.359V155H757.319C755.852 155 754.839 155.24 754.279 155.72C753.745 156.2 753.479 156.8 753.479 157.52C753.479 158.32 753.785 158.96 754.399 159.44C755.039 159.893 755.905 160.12 756.999 160.12C758.039 160.12 758.972 159.88 759.799 159.4C760.625 158.893 761.225 158.16 761.599 157.2L762.559 160.08C762.105 161.467 761.279 162.52 760.079 163.24C758.879 163.96 757.332 164.32 755.439 164.32ZM786.486 164V159.8L786.086 158.88V151.36C786.086 150.027 785.673 148.987 784.846 148.24C784.046 147.493 782.806 147.12 781.126 147.12C779.98 147.12 778.846 147.307 777.726 147.68C776.633 148.027 775.7 148.507 774.926 149.12L772.686 144.76C773.86 143.933 775.273 143.293 776.926 142.84C778.58 142.387 780.26 142.16 781.966 142.16C785.246 142.16 787.793 142.933 789.606 144.48C791.42 146.027 792.326 148.44 792.326 151.72V164H786.486ZM779.926 164.32C778.246 164.32 776.806 164.04 775.606 163.48C774.406 162.893 773.486 162.107 772.846 161.12C772.206 160.133 771.886 159.027 771.886 157.8C771.886 156.52 772.193 155.4 772.806 154.44C773.446 153.48 774.446 152.733 775.806 152.2C777.166 151.64 778.94 151.36 781.126 151.36H786.846V155H781.806C780.34 155 779.326 155.24 778.766 155.72C778.233 156.2 777.966 156.8 777.966 157.52C777.966 158.32 778.273 158.96 778.886 159.44C779.526 159.893 780.393 160.12 781.486 160.12C782.526 160.12 783.46 159.88 784.286 159.4C785.113 158.893 785.713 158.16 786.086 157.2L787.046 160.08C786.593 161.467 785.766 162.52 784.566 163.24C783.366 163.96 781.82 164.32 779.926 164.32ZM810.854 142.16C812.56 142.16 814.08 142.507 815.414 143.2C816.774 143.867 817.84 144.907 818.614 146.32C819.387 147.707 819.774 149.493 819.774 151.68V164H813.534V152.64C813.534 150.907 813.147 149.627 812.374 148.8C811.627 147.973 810.56 147.56 809.174 147.56C808.187 147.56 807.294 147.773 806.494 148.2C805.72 148.6 805.107 149.227 804.654 150.08C804.227 150.933 804.014 152.027 804.014 153.36V164H797.774V142.48H803.734V148.44L802.614 146.64C803.387 145.2 804.494 144.093 805.934 143.32C807.374 142.547 809.014 142.16 810.854 142.16ZM855.998 136H862.478V164H855.998V136ZM843.278 164H836.798V136H843.278V164ZM856.478 152.52H842.798V147.04H856.478V152.52ZM868.463 164V142.48H874.703V164H868.463ZM871.583 139.48C870.436 139.48 869.503 139.147 868.783 138.48C868.063 137.813 867.703 136.987 867.703 136C867.703 135.013 868.063 134.187 868.783 133.52C869.503 132.853 870.436 132.52 871.583 132.52C872.729 132.52 873.663 132.84 874.383 133.48C875.103 134.093 875.463 134.893 875.463 135.88C875.463 136.92 875.103 137.787 874.383 138.48C873.689 139.147 872.756 139.48 871.583 139.48ZM889.534 164.32C887.507 164.32 885.681 163.867 884.054 162.96C882.427 162.027 881.134 160.733 880.174 159.08C879.241 157.427 878.774 155.48 878.774 153.24C878.774 150.973 879.241 149.013 880.174 147.36C881.134 145.707 882.427 144.427 884.054 143.52C885.681 142.613 887.507 142.16 889.534 142.16C891.347 142.16 892.934 142.56 894.294 143.36C895.654 144.16 896.707 145.373 897.454 147C898.201 148.627 898.574 150.707 898.574 153.24C898.574 155.747 898.214 157.827 897.494 159.48C896.774 161.107 895.734 162.32 894.374 163.12C893.041 163.92 891.427 164.32 889.534 164.32ZM890.614 159.2C891.627 159.2 892.547 158.96 893.374 158.48C894.201 158 894.854 157.32 895.334 156.44C895.841 155.533 896.094 154.467 896.094 153.24C896.094 151.987 895.841 150.92 895.334 150.04C894.854 149.16 894.201 148.48 893.374 148C892.547 147.52 891.627 147.28 890.614 147.28C889.574 147.28 888.641 147.52 887.814 148C886.987 148.48 886.321 149.16 885.814 150.04C885.334 150.92 885.094 151.987 885.094 153.24C885.094 154.467 885.334 155.533 885.814 156.44C886.321 157.32 886.987 158 887.814 158.48C888.641 158.96 889.574 159.2 890.614 159.2ZM896.254 164V159.6L896.374 153.2L895.974 146.84V134.32H902.214V164H896.254ZM916.869 164.32C915.083 164.32 913.483 163.973 912.069 163.28C910.683 162.587 909.603 161.533 908.829 160.12C908.056 158.68 907.669 156.853 907.669 154.64V142.48H913.909V153.72C913.909 155.507 914.283 156.827 915.029 157.68C915.803 158.507 916.883 158.92 918.269 158.92C919.229 158.92 920.083 158.72 920.829 158.32C921.576 157.893 922.163 157.253 922.589 156.4C923.016 155.52 923.229 154.427 923.229 153.12V142.48H929.469V164H923.549V158.08L924.629 159.8C923.909 161.293 922.843 162.427 921.429 163.2C920.043 163.947 918.523 164.32 916.869 164.32ZM947.77 164.32C945.957 164.32 944.37 163.92 943.01 163.12C941.65 162.32 940.584 161.107 939.81 159.48C939.064 157.827 938.69 155.747 938.69 153.24C938.69 150.707 939.05 148.627 939.77 147C940.49 145.373 941.53 144.16 942.89 143.36C944.25 142.56 945.877 142.16 947.77 142.16C949.797 142.16 951.61 142.627 953.21 143.56C954.837 144.467 956.117 145.747 957.05 147.4C958.01 149.053 958.49 151 958.49 153.24C958.49 155.507 958.01 157.467 957.05 159.12C956.117 160.773 954.837 162.053 953.21 162.96C951.61 163.867 949.797 164.32 947.77 164.32ZM935.05 171.76V142.48H941.01V146.88L940.89 153.28L941.29 159.64V171.76H935.05ZM946.69 159.2C947.73 159.2 948.65 158.96 949.45 158.48C950.277 158 950.93 157.32 951.41 156.44C951.917 155.533 952.17 154.467 952.17 153.24C952.17 151.987 951.917 150.92 951.41 150.04C950.93 149.16 950.277 148.48 949.45 148C948.65 147.52 947.73 147.28 946.69 147.28C945.65 147.28 944.717 147.52 943.89 148C943.064 148.48 942.41 149.16 941.93 150.04C941.45 150.92 941.21 151.987 941.21 153.24C941.21 154.467 941.45 155.533 941.93 156.44C942.41 157.32 943.064 158 943.89 158.48C944.717 158.96 945.65 159.2 946.69 159.2ZM982.836 164.32C980.809 164.32 978.982 163.867 977.356 162.96C975.729 162.027 974.436 160.733 973.476 159.08C972.542 157.427 972.076 155.48 972.076 153.24C972.076 150.973 972.542 149.013 973.476 147.36C974.436 145.707 975.729 144.427 977.356 143.52C978.982 142.613 980.809 142.16 982.836 142.16C984.649 142.16 986.236 142.56 987.596 143.36C988.956 144.16 990.009 145.373 990.756 147C991.502 148.627 991.876 150.707 991.876 153.24C991.876 155.747 991.516 157.827 990.796 159.48C990.076 161.107 989.036 162.32 987.676 163.12C986.342 163.92 984.729 164.32 982.836 164.32ZM983.916 159.2C984.929 159.2 985.849 158.96 986.676 158.48C987.502 158 988.156 157.32 988.636 156.44C989.142 155.533 989.396 154.467 989.396 153.24C989.396 151.987 989.142 150.92 988.636 150.04C988.156 149.16 987.502 148.48 986.676 148C985.849 147.52 984.929 147.28 983.916 147.28C982.876 147.28 981.942 147.52 981.116 148C980.289 148.48 979.622 149.16 979.116 150.04C978.636 150.92 978.396 151.987 978.396 153.24C978.396 154.467 978.636 155.533 979.116 156.44C979.622 157.32 980.289 158 981.116 158.48C981.942 158.96 982.876 159.2 983.916 159.2ZM989.556 164V159.6L989.676 153.2L989.276 146.84V134.32H995.516V164H989.556ZM1011.77 164.32C1009.32 164.32 1007.16 163.84 1005.29 162.88C1003.45 161.92 1002.02 160.613 1001.01 158.96C999.998 157.28 999.491 155.373 999.491 153.24C999.491 151.08 999.984 149.173 1000.97 147.52C1001.98 145.84 1003.36 144.533 1005.09 143.6C1006.82 142.64 1008.78 142.16 1010.97 142.16C1013.08 142.16 1014.97 142.613 1016.65 143.52C1018.36 144.4 1019.7 145.68 1020.69 147.36C1021.68 149.013 1022.17 151 1022.17 153.32C1022.17 153.56 1022.16 153.84 1022.13 154.16C1022.1 154.453 1022.08 154.733 1022.05 155H1004.57V151.36H1018.77L1016.37 152.44C1016.37 151.32 1016.14 150.347 1015.69 149.52C1015.24 148.693 1014.61 148.053 1013.81 147.6C1013.01 147.12 1012.08 146.88 1011.01 146.88C1009.94 146.88 1009 147.12 1008.17 147.6C1007.37 148.053 1006.74 148.707 1006.29 149.56C1005.84 150.387 1005.61 151.373 1005.61 152.52V153.48C1005.61 154.653 1005.86 155.693 1006.37 156.6C1006.9 157.48 1007.64 158.16 1008.57 158.64C1009.53 159.093 1010.65 159.32 1011.93 159.32C1013.08 159.32 1014.08 159.147 1014.93 158.8C1015.81 158.453 1016.61 157.933 1017.33 157.24L1020.65 160.84C1019.66 161.96 1018.42 162.827 1016.93 163.44C1015.44 164.027 1013.72 164.32 1011.77 164.32ZM1039.21 142.16C1040.91 142.16 1042.43 142.507 1043.77 143.2C1045.13 143.867 1046.19 144.907 1046.97 146.32C1047.74 147.707 1048.13 149.493 1048.13 151.68V164H1041.89V152.64C1041.89 150.907 1041.5 149.627 1040.73 148.8C1039.98 147.973 1038.91 147.56 1037.53 147.56C1036.54 147.56 1035.65 147.773 1034.85 148.2C1034.07 148.6 1033.46 149.227 1033.01 150.08C1032.58 150.933 1032.37 152.027 1032.37 153.36V164H1026.13V142.48H1032.09V148.44L1030.97 146.64C1031.74 145.2 1032.85 144.093 1034.29 143.32C1035.73 142.547 1037.37 142.16 1039.21 142.16ZM1063.86 172.08C1061.83 172.08 1059.87 171.827 1057.98 171.32C1056.11 170.84 1054.55 170.107 1053.3 169.12L1055.78 164.64C1056.68 165.387 1057.83 165.973 1059.22 166.4C1060.63 166.853 1062.02 167.08 1063.38 167.08C1065.59 167.08 1067.19 166.587 1068.18 165.6C1069.19 164.613 1069.7 163.147 1069.7 161.2V157.96L1070.1 152.56L1070.02 147.12V142.48H1075.94V160.4C1075.94 164.4 1074.9 167.347 1072.82 169.24C1070.74 171.133 1067.75 172.08 1063.86 172.08ZM1062.9 162.96C1060.9 162.96 1059.08 162.533 1057.46 161.68C1055.86 160.8 1054.56 159.587 1053.58 158.04C1052.62 156.467 1052.14 154.64 1052.14 152.56C1052.14 150.453 1052.62 148.627 1053.58 147.08C1054.56 145.507 1055.86 144.293 1057.46 143.44C1059.08 142.587 1060.9 142.16 1062.9 142.16C1064.71 142.16 1066.31 142.533 1067.7 143.28C1069.08 144 1070.16 145.133 1070.94 146.68C1071.71 148.2 1072.1 150.16 1072.1 152.56C1072.1 154.933 1071.71 156.893 1070.94 158.44C1070.16 159.96 1069.08 161.093 1067.7 161.84C1066.31 162.587 1064.71 162.96 1062.9 162.96ZM1064.14 157.84C1065.23 157.84 1066.2 157.627 1067.06 157.2C1067.91 156.747 1068.58 156.12 1069.06 155.32C1069.54 154.52 1069.78 153.6 1069.78 152.56C1069.78 151.493 1069.54 150.573 1069.06 149.8C1068.58 149 1067.91 148.387 1067.06 147.96C1066.2 147.507 1065.23 147.28 1064.14 147.28C1063.04 147.28 1062.07 147.507 1061.22 147.96C1060.36 148.387 1059.68 149 1059.18 149.8C1058.7 150.573 1058.46 151.493 1058.46 152.56C1058.46 153.6 1058.7 154.52 1059.18 155.32C1059.68 156.12 1060.36 156.747 1061.22 157.2C1062.07 157.627 1063.04 157.84 1064.14 157.84ZM1094.75 164V159.8L1094.35 158.88V151.36C1094.35 150.027 1093.93 148.987 1093.11 148.24C1092.31 147.493 1091.07 147.12 1089.39 147.12C1088.24 147.12 1087.11 147.307 1085.99 147.68C1084.89 148.027 1083.96 148.507 1083.19 149.12L1080.95 144.76C1082.12 143.933 1083.53 143.293 1085.19 142.84C1086.84 142.387 1088.52 142.16 1090.23 142.16C1093.51 142.16 1096.05 142.933 1097.87 144.48C1099.68 146.027 1100.59 148.44 1100.59 151.72V164H1094.75ZM1088.19 164.32C1086.51 164.32 1085.07 164.04 1083.87 163.48C1082.67 162.893 1081.75 162.107 1081.11 161.12C1080.47 160.133 1080.15 159.027 1080.15 157.8C1080.15 156.52 1080.45 155.4 1081.07 154.44C1081.71 153.48 1082.71 152.733 1084.07 152.2C1085.43 151.64 1087.2 151.36 1089.39 151.36H1095.11V155H1090.07C1088.6 155 1087.59 155.24 1087.03 155.72C1086.49 156.2 1086.23 156.8 1086.23 157.52C1086.23 158.32 1086.53 158.96 1087.15 159.44C1087.79 159.893 1088.65 160.12 1089.75 160.12C1090.79 160.12 1091.72 159.88 1092.55 159.4C1093.37 158.893 1093.97 158.16 1094.35 157.2L1095.31 160.08C1094.85 161.467 1094.03 162.52 1092.83 163.24C1091.63 163.96 1090.08 164.32 1088.19 164.32ZM1119.11 142.16C1120.82 142.16 1122.34 142.507 1123.67 143.2C1125.03 143.867 1126.1 144.907 1126.87 146.32C1127.65 147.707 1128.03 149.493 1128.03 151.68V164H1121.79V152.64C1121.79 150.907 1121.41 149.627 1120.63 148.8C1119.89 147.973 1118.82 147.56 1117.43 147.56C1116.45 147.56 1115.55 147.773 1114.75 148.2C1113.98 148.6 1113.37 149.227 1112.91 150.08C1112.49 150.933 1112.27 152.027 1112.27 153.36V164H1106.03V142.48H1111.99V148.44L1110.87 146.64C1111.65 145.2 1112.75 144.093 1114.19 143.32C1115.63 142.547 1117.27 142.16 1119.11 142.16ZM435.32 214V186H440.68L452.6 205.76H449.76L461.48 186H466.8L466.88 214H460.8L460.76 195.32H461.88L452.52 211.04H449.6L440.04 195.32H441.4V214H435.32ZM483.563 214.32C481.11 214.32 478.95 213.84 477.083 212.88C475.243 211.92 473.816 210.613 472.803 208.96C471.79 207.28 471.283 205.373 471.283 203.24C471.283 201.08 471.776 199.173 472.763 197.52C473.776 195.84 475.15 194.533 476.883 193.6C478.616 192.64 480.576 192.16 482.763 192.16C484.87 192.16 486.763 192.613 488.443 193.52C490.15 194.4 491.496 195.68 492.483 197.36C493.47 199.013 493.963 201 493.963 203.32C493.963 203.56 493.95 203.84 493.923 204.16C493.896 204.453 493.87 204.733 493.843 205H476.363V201.36H490.563L488.163 202.44C488.163 201.32 487.936 200.347 487.483 199.52C487.03 198.693 486.403 198.053 485.603 197.6C484.803 197.12 483.87 196.88 482.803 196.88C481.736 196.88 480.79 197.12 479.963 197.6C479.163 198.053 478.536 198.707 478.083 199.56C477.63 200.387 477.403 201.373 477.403 202.52V203.48C477.403 204.653 477.656 205.693 478.163 206.6C478.696 207.48 479.43 208.16 480.363 208.64C481.323 209.093 482.443 209.32 483.723 209.32C484.87 209.32 485.87 209.147 486.723 208.8C487.603 208.453 488.403 207.933 489.123 207.24L492.443 210.84C491.456 211.96 490.216 212.827 488.723 213.44C487.23 214.027 485.51 214.32 483.563 214.32ZM510.997 192.16C512.704 192.16 514.224 192.507 515.557 193.2C516.917 193.867 517.984 194.907 518.758 196.32C519.531 197.707 519.918 199.493 519.918 201.68V214H513.677V202.64C513.677 200.907 513.291 199.627 512.517 198.8C511.771 197.973 510.704 197.56 509.317 197.56C508.331 197.56 507.437 197.773 506.637 198.2C505.864 198.6 505.251 199.227 504.797 200.08C504.371 200.933 504.157 202.027 504.157 203.36V214H497.917V192.48H503.877V198.44L502.757 196.64C503.531 195.2 504.637 194.093 506.077 193.32C507.517 192.547 509.157 192.16 510.997 192.16ZM535.93 214.32C533.61 214.32 531.543 213.853 529.73 212.92C527.917 211.96 526.49 210.64 525.45 208.96C524.437 207.28 523.93 205.373 523.93 203.24C523.93 201.08 524.437 199.173 525.45 197.52C526.49 195.84 527.917 194.533 529.73 193.6C531.543 192.64 533.61 192.16 535.93 192.16C538.197 192.16 540.17 192.64 541.85 193.6C543.53 194.533 544.77 195.88 545.57 197.64L540.73 200.24C540.17 199.227 539.463 198.48 538.61 198C537.783 197.52 536.877 197.28 535.89 197.28C534.823 197.28 533.863 197.52 533.01 198C532.157 198.48 531.477 199.16 530.97 200.04C530.49 200.92 530.25 201.987 530.25 203.24C530.25 204.493 530.49 205.56 530.97 206.44C531.477 207.32 532.157 208 533.01 208.48C533.863 208.96 534.823 209.2 535.89 209.2C536.877 209.2 537.783 208.973 538.61 208.52C539.463 208.04 540.17 207.28 540.73 206.24L545.57 208.88C544.77 210.613 543.53 211.96 541.85 212.92C540.17 213.853 538.197 214.32 535.93 214.32ZM548.846 214V192.48H555.086V214H548.846ZM551.966 189.48C550.819 189.48 549.886 189.147 549.166 188.48C548.446 187.813 548.086 186.987 548.086 186C548.086 185.013 548.446 184.187 549.166 183.52C549.886 182.853 550.819 182.52 551.966 182.52C553.112 182.52 554.046 182.84 554.766 183.48C555.486 184.093 555.846 184.893 555.846 185.88C555.846 186.92 555.486 187.787 554.766 188.48C554.072 189.147 553.139 189.48 551.966 189.48ZM573.757 192.16C575.464 192.16 576.984 192.507 578.317 193.2C579.677 193.867 580.744 194.907 581.517 196.32C582.29 197.707 582.677 199.493 582.677 201.68V214H576.437V202.64C576.437 200.907 576.05 199.627 575.277 198.8C574.53 197.973 573.464 197.56 572.077 197.56C571.09 197.56 570.197 197.773 569.397 198.2C568.624 198.6 568.01 199.227 567.557 200.08C567.13 200.933 566.917 202.027 566.917 203.36V214H560.677V192.48H566.637V198.44L565.517 196.64C566.29 195.2 567.397 194.093 568.837 193.32C570.277 192.547 571.917 192.16 573.757 192.16ZM596.933 214.32C594.4 214.32 592.426 213.68 591.013 212.4C589.6 211.093 588.893 209.16 588.893 206.6V187.72H595.133V206.52C595.133 207.427 595.373 208.133 595.853 208.64C596.333 209.12 596.986 209.36 597.813 209.36C598.8 209.36 599.64 209.093 600.333 208.56L602.013 212.96C601.373 213.413 600.6 213.76 599.693 214C598.813 214.213 597.893 214.32 596.933 214.32ZM585.573 197.76V192.96H600.493V197.76H585.573ZM618.516 214V209.8L618.116 208.88V201.36C618.116 200.027 617.703 198.987 616.876 198.24C616.076 197.493 614.836 197.12 613.156 197.12C612.009 197.12 610.876 197.307 609.756 197.68C608.663 198.027 607.729 198.507 606.956 199.12L604.716 194.76C605.889 193.933 607.303 193.293 608.956 192.84C610.609 192.387 612.289 192.16 613.996 192.16C617.276 192.16 619.823 192.933 621.636 194.48C623.449 196.027 624.356 198.44 624.356 201.72V214H618.516ZM611.956 214.32C610.276 214.32 608.836 214.04 607.636 213.48C606.436 212.893 605.516 212.107 604.876 211.12C604.236 210.133 603.916 209.027 603.916 207.8C603.916 206.52 604.223 205.4 604.836 204.44C605.476 203.48 606.476 202.733 607.836 202.2C609.196 201.64 610.969 201.36 613.156 201.36H618.876V205H613.836C612.369 205 611.356 205.24 610.796 205.72C610.263 206.2 609.996 206.8 609.996 207.52C609.996 208.32 610.303 208.96 610.916 209.44C611.556 209.893 612.423 210.12 613.516 210.12C614.556 210.12 615.489 209.88 616.316 209.4C617.143 208.893 617.743 208.16 618.116 207.2L619.076 210.08C618.623 211.467 617.796 212.52 616.596 213.24C615.396 213.96 613.849 214.32 611.956 214.32ZM629.803 214V192.48H636.043V214H629.803ZM632.923 189.48C631.777 189.48 630.843 189.147 630.123 188.48C629.403 187.813 629.043 186.987 629.043 186C629.043 185.013 629.403 184.187 630.123 183.52C630.843 182.853 631.777 182.52 632.923 182.52C634.07 182.52 635.003 182.84 635.723 183.48C636.443 184.093 636.803 184.893 636.803 185.88C636.803 186.92 636.443 187.787 635.723 188.48C635.03 189.147 634.097 189.48 632.923 189.48ZM662.003 214.32C659.976 214.32 658.149 213.867 656.523 212.96C654.896 212.027 653.603 210.733 652.643 209.08C651.709 207.427 651.243 205.48 651.243 203.24C651.243 200.973 651.709 199.013 652.643 197.36C653.603 195.707 654.896 194.427 656.523 193.52C658.149 192.613 659.976 192.16 662.003 192.16C663.816 192.16 665.403 192.56 666.763 193.36C668.123 194.16 669.176 195.373 669.923 197C670.669 198.627 671.043 200.707 671.043 203.24C671.043 205.747 670.683 207.827 669.963 209.48C669.243 211.107 668.203 212.32 666.843 213.12C665.509 213.92 663.896 214.32 662.003 214.32ZM663.083 209.2C664.096 209.2 665.016 208.96 665.843 208.48C666.669 208 667.323 207.32 667.803 206.44C668.309 205.533 668.563 204.467 668.563 203.24C668.563 201.987 668.309 200.92 667.803 200.04C667.323 199.16 666.669 198.48 665.843 198C665.016 197.52 664.096 197.28 663.083 197.28C662.043 197.28 661.109 197.52 660.283 198C659.456 198.48 658.789 199.16 658.283 200.04C657.803 200.92 657.563 201.987 657.563 203.24C657.563 204.467 657.803 205.533 658.283 206.44C658.789 207.32 659.456 208 660.283 208.48C661.109 208.96 662.043 209.2 663.083 209.2ZM668.723 214V209.6L668.843 203.2L668.443 196.84V184.32H674.683V214H668.723ZM693.458 214V209.8L693.058 208.88V201.36C693.058 200.027 692.645 198.987 691.818 198.24C691.018 197.493 689.778 197.12 688.098 197.12C686.951 197.12 685.818 197.307 684.698 197.68C683.605 198.027 682.671 198.507 681.898 199.12L679.658 194.76C680.831 193.933 682.245 193.293 683.898 192.84C685.551 192.387 687.231 192.16 688.938 192.16C692.218 192.16 694.765 192.933 696.578 194.48C698.391 196.027 699.298 198.44 699.298 201.72V214H693.458ZM686.898 214.32C685.218 214.32 683.778 214.04 682.578 213.48C681.378 212.893 680.458 212.107 679.818 211.12C679.178 210.133 678.858 209.027 678.858 207.8C678.858 206.52 679.165 205.4 679.778 204.44C680.418 203.48 681.418 202.733 682.778 202.2C684.138 201.64 685.911 201.36 688.098 201.36H693.818V205H688.778C687.311 205 686.298 205.24 685.738 205.72C685.205 206.2 684.938 206.8 684.938 207.52C684.938 208.32 685.245 208.96 685.858 209.44C686.498 209.893 687.365 210.12 688.458 210.12C689.498 210.12 690.431 209.88 691.258 209.4C692.085 208.893 692.685 208.16 693.058 207.2L694.018 210.08C693.565 211.467 692.738 212.52 691.538 213.24C690.338 213.96 688.791 214.32 686.898 214.32ZM717.826 192.16C719.532 192.16 721.052 192.507 722.386 193.2C723.746 193.867 724.812 194.907 725.586 196.32C726.359 197.707 726.746 199.493 726.746 201.68V214H720.506V202.64C720.506 200.907 720.119 199.627 719.346 198.8C718.599 197.973 717.532 197.56 716.146 197.56C715.159 197.56 714.266 197.773 713.466 198.2C712.692 198.6 712.079 199.227 711.626 200.08C711.199 200.933 710.986 202.027 710.986 203.36V214H704.746V192.48H710.706V198.44L709.586 196.64C710.359 195.2 711.466 194.093 712.906 193.32C714.346 192.547 715.986 192.16 717.826 192.16ZM743.77 214V186H749.13L761.05 205.76H758.21L769.93 186H775.25L775.33 214H769.25L769.21 195.32H770.33L760.97 211.04H758.05L748.49 195.32H749.85V214H743.77ZM792.013 214.32C789.56 214.32 787.4 213.84 785.533 212.88C783.693 211.92 782.266 210.613 781.253 208.96C780.24 207.28 779.733 205.373 779.733 203.24C779.733 201.08 780.226 199.173 781.213 197.52C782.226 195.84 783.6 194.533 785.333 193.6C787.066 192.64 789.026 192.16 791.213 192.16C793.32 192.16 795.213 192.613 796.893 193.52C798.6 194.4 799.946 195.68 800.933 197.36C801.92 199.013 802.413 201 802.413 203.32C802.413 203.56 802.4 203.84 802.373 204.16C802.346 204.453 802.32 204.733 802.293 205H784.813V201.36H799.013L796.613 202.44C796.613 201.32 796.386 200.347 795.933 199.52C795.48 198.693 794.853 198.053 794.053 197.6C793.253 197.12 792.32 196.88 791.253 196.88C790.186 196.88 789.24 197.12 788.413 197.6C787.613 198.053 786.986 198.707 786.533 199.56C786.08 200.387 785.853 201.373 785.853 202.52V203.48C785.853 204.653 786.106 205.693 786.613 206.6C787.146 207.48 787.88 208.16 788.813 208.64C789.773 209.093 790.893 209.32 792.173 209.32C793.32 209.32 794.32 209.147 795.173 208.8C796.053 208.453 796.853 207.933 797.573 207.24L800.893 210.84C799.906 211.96 798.666 212.827 797.173 213.44C795.68 214.027 793.96 214.32 792.013 214.32ZM819.447 192.16C821.154 192.16 822.674 192.507 824.007 193.2C825.367 193.867 826.434 194.907 827.207 196.32C827.981 197.707 828.367 199.493 828.367 201.68V214H822.127V202.64C822.127 200.907 821.741 199.627 820.967 198.8C820.221 197.973 819.154 197.56 817.767 197.56C816.781 197.56 815.887 197.773 815.087 198.2C814.314 198.6 813.701 199.227 813.247 200.08C812.821 200.933 812.607 202.027 812.607 203.36V214H806.367V192.48H812.327V198.44L811.207 196.64C811.981 195.2 813.087 194.093 814.527 193.32C815.967 192.547 817.607 192.16 819.447 192.16ZM836.153 222.08C835.033 222.08 833.926 221.907 832.833 221.56C831.74 221.213 830.846 220.733 830.153 220.12L832.433 215.68C832.913 216.107 833.46 216.44 834.073 216.68C834.713 216.92 835.34 217.04 835.953 217.04C836.833 217.04 837.526 216.827 838.033 216.4C838.566 216 839.046 215.32 839.473 214.36L840.593 211.72L841.073 211.04L848.793 192.48H854.793L845.073 215.32C844.38 217.053 843.58 218.413 842.673 219.4C841.793 220.387 840.806 221.08 839.713 221.48C838.646 221.88 837.46 222.08 836.153 222.08ZM839.833 214.84L830.233 192.48H836.673L844.113 210.48L839.833 214.84ZM869.636 214V209.8L869.236 208.88V201.36C869.236 200.027 868.823 198.987 867.996 198.24C867.196 197.493 865.956 197.12 864.276 197.12C863.13 197.12 861.996 197.307 860.876 197.68C859.783 198.027 858.85 198.507 858.076 199.12L855.836 194.76C857.01 193.933 858.423 193.293 860.076 192.84C861.73 192.387 863.41 192.16 865.116 192.16C868.396 192.16 870.943 192.933 872.756 194.48C874.57 196.027 875.476 198.44 875.476 201.72V214H869.636ZM863.076 214.32C861.396 214.32 859.956 214.04 858.756 213.48C857.556 212.893 856.636 212.107 855.996 211.12C855.356 210.133 855.036 209.027 855.036 207.8C855.036 206.52 855.343 205.4 855.956 204.44C856.596 203.48 857.596 202.733 858.956 202.2C860.316 201.64 862.09 201.36 864.276 201.36H869.996V205H864.956C863.49 205 862.476 205.24 861.916 205.72C861.383 206.2 861.116 206.8 861.116 207.52C861.116 208.32 861.423 208.96 862.036 209.44C862.676 209.893 863.543 210.12 864.636 210.12C865.676 210.12 866.61 209.88 867.436 209.4C868.263 208.893 868.863 208.16 869.236 207.2L870.196 210.08C869.743 211.467 868.916 212.52 867.716 213.24C866.516 213.96 864.97 214.32 863.076 214.32ZM883.253 222.08C882.133 222.08 881.026 221.907 879.933 221.56C878.84 221.213 877.946 220.733 877.253 220.12L879.533 215.68C880.013 216.107 880.56 216.44 881.173 216.68C881.813 216.92 882.44 217.04 883.053 217.04C883.933 217.04 884.626 216.827 885.133 216.4C885.666 216 886.146 215.32 886.573 214.36L887.693 211.72L888.173 211.04L895.893 192.48H901.893L892.173 215.32C891.48 217.053 890.68 218.413 889.773 219.4C888.893 220.387 887.906 221.08 886.813 221.48C885.746 221.88 884.56 222.08 883.253 222.08ZM886.933 214.84L877.333 192.48H883.773L891.213 210.48L886.933 214.84ZM916.736 214V209.8L916.336 208.88V201.36C916.336 200.027 915.923 198.987 915.096 198.24C914.296 197.493 913.056 197.12 911.376 197.12C910.23 197.12 909.096 197.307 907.976 197.68C906.883 198.027 905.95 198.507 905.176 199.12L902.936 194.76C904.11 193.933 905.523 193.293 907.176 192.84C908.83 192.387 910.51 192.16 912.216 192.16C915.496 192.16 918.043 192.933 919.856 194.48C921.67 196.027 922.576 198.44 922.576 201.72V214H916.736ZM910.176 214.32C908.496 214.32 907.056 214.04 905.856 213.48C904.656 212.893 903.736 212.107 903.096 211.12C902.456 210.133 902.136 209.027 902.136 207.8C902.136 206.52 902.443 205.4 903.056 204.44C903.696 203.48 904.696 202.733 906.056 202.2C907.416 201.64 909.19 201.36 911.376 201.36H917.096V205H912.056C910.59 205 909.576 205.24 909.016 205.72C908.483 206.2 908.216 206.8 908.216 207.52C908.216 208.32 908.523 208.96 909.136 209.44C909.776 209.893 910.643 210.12 911.736 210.12C912.776 210.12 913.71 209.88 914.536 209.4C915.363 208.893 915.963 208.16 916.336 207.2L917.296 210.08C916.843 211.467 916.016 212.52 914.816 213.24C913.616 213.96 912.07 214.32 910.176 214.32ZM941.104 192.16C942.81 192.16 944.33 192.507 945.664 193.2C947.024 193.867 948.09 194.907 948.864 196.32C949.637 197.707 950.024 199.493 950.024 201.68V214H943.784V202.64C943.784 200.907 943.397 199.627 942.624 198.8C941.877 197.973 940.81 197.56 939.424 197.56C938.437 197.56 937.544 197.773 936.744 198.2C935.97 198.6 935.357 199.227 934.904 200.08C934.477 200.933 934.264 202.027 934.264 203.36V214H928.024V192.48H933.984V198.44L932.864 196.64C933.637 195.2 934.744 194.093 936.184 193.32C937.624 192.547 939.264 192.16 941.104 192.16ZM965.756 222.08C963.73 222.08 961.77 221.827 959.876 221.32C958.01 220.84 956.45 220.107 955.196 219.12L957.676 214.64C958.583 215.387 959.73 215.973 961.116 216.4C962.53 216.853 963.916 217.08 965.276 217.08C967.49 217.08 969.09 216.587 970.076 215.6C971.09 214.613 971.596 213.147 971.596 211.2V207.96L971.996 202.56L971.916 197.12V192.48H977.836V210.4C977.836 214.4 976.796 217.347 974.716 219.24C972.636 221.133 969.65 222.08 965.756 222.08ZM964.796 212.96C962.796 212.96 960.983 212.533 959.356 211.68C957.756 210.8 956.463 209.587 955.476 208.04C954.516 206.467 954.036 204.64 954.036 202.56C954.036 200.453 954.516 198.627 955.476 197.08C956.463 195.507 957.756 194.293 959.356 193.44C960.983 192.587 962.796 192.16 964.796 192.16C966.61 192.16 968.21 192.533 969.596 193.28C970.983 194 972.063 195.133 972.836 196.68C973.61 198.2 973.996 200.16 973.996 202.56C973.996 204.933 973.61 206.893 972.836 208.44C972.063 209.96 970.983 211.093 969.596 211.84C968.21 212.587 966.61 212.96 964.796 212.96ZM966.036 207.84C967.13 207.84 968.103 207.627 968.956 207.2C969.81 206.747 970.476 206.12 970.956 205.32C971.436 204.52 971.676 203.6 971.676 202.56C971.676 201.493 971.436 200.573 970.956 199.8C970.476 199 969.81 198.387 968.956 197.96C968.103 197.507 967.13 197.28 966.036 197.28C964.943 197.28 963.97 197.507 963.116 197.96C962.263 198.387 961.583 199 961.076 199.8C960.596 200.573 960.356 201.493 960.356 202.56C960.356 203.6 960.596 204.52 961.076 205.32C961.583 206.12 962.263 206.747 963.116 207.2C963.97 207.627 964.943 207.84 966.036 207.84ZM983.444 214V192.48H989.684V214H983.444ZM986.564 189.48C985.417 189.48 984.484 189.147 983.764 188.48C983.044 187.813 982.684 186.987 982.684 186C982.684 185.013 983.044 184.187 983.764 183.52C984.484 182.853 985.417 182.52 986.564 182.52C987.711 182.52 988.644 182.84 989.364 183.48C990.084 184.093 990.444 184.893 990.444 185.88C990.444 186.92 990.084 187.787 989.364 188.48C988.671 189.147 987.737 189.48 986.564 189.48ZM1003.16 214L1015.64 186H1022.04L1034.56 214H1027.76L1017.52 189.28H1020.08L1009.8 214H1003.16ZM1009.4 208L1011.12 203.08H1025.52L1027.28 208H1009.4ZM1049.91 192.16C1051.62 192.16 1053.14 192.507 1054.47 193.2C1055.83 193.867 1056.9 194.907 1057.67 196.32C1058.44 197.707 1058.83 199.493 1058.83 201.68V214H1052.59V202.64C1052.59 200.907 1052.2 199.627 1051.43 198.8C1050.68 197.973 1049.62 197.56 1048.23 197.56C1047.24 197.56 1046.35 197.773 1045.55 198.2C1044.78 198.6 1044.16 199.227 1043.71 200.08C1043.28 200.933 1043.07 202.027 1043.07 203.36V214H1036.83V192.48H1042.79V198.44L1041.67 196.64C1042.44 195.2 1043.55 194.093 1044.99 193.32C1046.43 192.547 1048.07 192.16 1049.91 192.16ZM1077.48 214V209.8L1077.08 208.88V201.36C1077.08 200.027 1076.67 198.987 1075.84 198.24C1075.04 197.493 1073.8 197.12 1072.12 197.12C1070.98 197.12 1069.84 197.307 1068.72 197.68C1067.63 198.027 1066.7 198.507 1065.92 199.12L1063.68 194.76C1064.86 193.933 1066.27 193.293 1067.92 192.84C1069.58 192.387 1071.26 192.16 1072.96 192.16C1076.24 192.16 1078.79 192.933 1080.6 194.48C1082.42 196.027 1083.32 198.44 1083.32 201.72V214H1077.48ZM1070.92 214.32C1069.24 214.32 1067.8 214.04 1066.6 213.48C1065.4 212.893 1064.48 212.107 1063.84 211.12C1063.2 210.133 1062.88 209.027 1062.88 207.8C1062.88 206.52 1063.19 205.4 1063.8 204.44C1064.44 203.48 1065.44 202.733 1066.8 202.2C1068.16 201.64 1069.94 201.36 1072.12 201.36H1077.84V205H1072.8C1071.34 205 1070.32 205.24 1069.76 205.72C1069.23 206.2 1068.96 206.8 1068.96 207.52C1068.96 208.32 1069.27 208.96 1069.88 209.44C1070.52 209.893 1071.39 210.12 1072.48 210.12C1073.52 210.12 1074.46 209.88 1075.28 209.4C1076.11 208.893 1076.71 208.16 1077.08 207.2L1078.04 210.08C1077.59 211.467 1076.76 212.52 1075.56 213.24C1074.36 213.96 1072.82 214.32 1070.92 214.32ZM1093.93 209.6L1094.09 202L1104.13 192.48H1111.57L1101.93 202.28L1098.69 204.92L1093.93 209.6ZM1088.77 214V184.32H1095.01V214H1088.77ZM1104.81 214L1097.53 204.96L1101.45 200.12L1112.37 214H1104.81ZM442.28 264V252.56L443.76 256.48L431.44 236H438.32L447.76 251.72H443.8L453.28 236H459.64L447.32 256.48L448.76 252.56V264H442.28ZM472.294 264V259.8L471.894 258.88V251.36C471.894 250.027 471.481 248.987 470.654 248.24C469.854 247.493 468.614 247.12 466.934 247.12C465.787 247.12 464.654 247.307 463.534 247.68C462.441 248.027 461.507 248.507 460.734 249.12L458.494 244.76C459.667 243.933 461.081 243.293 462.734 242.84C464.387 242.387 466.067 242.16 467.774 242.16C471.054 242.16 473.601 242.933 475.414 244.48C477.227 246.027 478.134 248.44 478.134 251.72V264H472.294ZM465.734 264.32C464.054 264.32 462.614 264.04 461.414 263.48C460.214 262.893 459.294 262.107 458.654 261.12C458.014 260.133 457.694 259.027 457.694 257.8C457.694 256.52 458.001 255.4 458.614 254.44C459.254 253.48 460.254 252.733 461.614 252.2C462.974 251.64 464.747 251.36 466.934 251.36H472.654V255H467.614C466.147 255 465.134 255.24 464.574 255.72C464.041 256.2 463.774 256.8 463.774 257.52C463.774 258.32 464.081 258.96 464.694 259.44C465.334 259.893 466.201 260.12 467.294 260.12C468.334 260.12 469.267 259.88 470.094 259.4C470.921 258.893 471.521 258.16 471.894 257.2L472.854 260.08C472.401 261.467 471.574 262.52 470.374 263.24C469.174 263.96 467.627 264.32 465.734 264.32ZM492.382 264.32C489.848 264.32 487.875 263.68 486.462 262.4C485.048 261.093 484.342 259.16 484.342 256.6V237.72H490.582V256.52C490.582 257.427 490.822 258.133 491.302 258.64C491.782 259.12 492.435 259.36 493.262 259.36C494.248 259.36 495.088 259.093 495.782 258.56L497.462 262.96C496.822 263.413 496.048 263.76 495.142 264C494.262 264.213 493.342 264.32 492.382 264.32ZM481.022 247.76V242.96H495.942V247.76H481.022ZM500.764 264V242.48H507.004V264H500.764ZM503.884 239.48C502.738 239.48 501.804 239.147 501.084 238.48C500.364 237.813 500.004 236.987 500.004 236C500.004 235.013 500.364 234.187 501.084 233.52C501.804 232.853 502.738 232.52 503.884 232.52C505.031 232.52 505.964 232.84 506.684 233.48C507.404 234.093 507.764 234.893 507.764 235.88C507.764 236.92 507.404 237.787 506.684 238.48C505.991 239.147 505.058 239.48 503.884 239.48ZM540.156 242.16C541.862 242.16 543.369 242.507 544.676 243.2C546.009 243.867 547.049 244.907 547.796 246.32C548.569 247.707 548.956 249.493 548.956 251.68V264H542.716V252.64C542.716 250.907 542.356 249.627 541.636 248.8C540.916 247.973 539.902 247.56 538.596 247.56C537.689 247.56 536.876 247.773 536.156 248.2C535.436 248.6 534.876 249.213 534.476 250.04C534.076 250.867 533.876 251.92 533.876 253.2V264H527.636V252.64C527.636 250.907 527.276 249.627 526.556 248.8C525.862 247.973 524.862 247.56 523.556 247.56C522.649 247.56 521.836 247.773 521.116 248.2C520.396 248.6 519.836 249.213 519.436 250.04C519.036 250.867 518.836 251.92 518.836 253.2V264H512.596V242.48H518.556V248.36L517.436 246.64C518.182 245.173 519.236 244.067 520.596 243.32C521.982 242.547 523.556 242.16 525.316 242.16C527.289 242.16 529.009 242.667 530.476 243.68C531.969 244.667 532.956 246.187 533.436 248.24L531.236 247.64C531.956 245.96 533.102 244.627 534.676 243.64C536.276 242.653 538.102 242.16 540.156 242.16Z" fill="white"/>
<rect x="432" y="297" width="180" height="56" rx="7" fill="white"/>
<path d="M457.832 319.88C459.016 319.88 460.051 320.109 460.936 320.568C461.832 321.016 462.52 321.667 463 322.52C463.491 323.363 463.736 324.349 463.736 325.48C463.736 326.611 463.491 327.592 463 328.424C462.52 329.256 461.832 329.896 460.936 330.344C460.051 330.781 459.016 331 457.832 331H454.2V319.88H457.832ZM457.832 329.512C459.133 329.512 460.131 329.16 460.824 328.456C461.517 327.752 461.864 326.76 461.864 325.48C461.864 324.189 461.517 323.181 460.824 322.456C460.131 321.731 459.133 321.368 457.832 321.368H456.024V329.512H457.832ZM469.368 331.144C468.536 331.144 467.784 330.957 467.112 330.584C466.44 330.2 465.912 329.667 465.528 328.984C465.144 328.291 464.952 327.491 464.952 326.584C464.952 325.688 465.149 324.893 465.544 324.2C465.938 323.507 466.477 322.973 467.16 322.6C467.842 322.227 468.605 322.04 469.448 322.04C470.29 322.04 471.053 322.227 471.736 322.6C472.418 322.973 472.957 323.507 473.352 324.2C473.746 324.893 473.944 325.688 473.944 326.584C473.944 327.48 473.741 328.275 473.336 328.968C472.93 329.661 472.376 330.2 471.672 330.584C470.978 330.957 470.21 331.144 469.368 331.144ZM469.368 329.56C469.837 329.56 470.274 329.448 470.68 329.224C471.096 329 471.432 328.664 471.688 328.216C471.944 327.768 472.072 327.224 472.072 326.584C472.072 325.944 471.949 325.405 471.704 324.968C471.458 324.52 471.133 324.184 470.728 323.96C470.322 323.736 469.885 323.624 469.416 323.624C468.946 323.624 468.509 323.736 468.104 323.96C467.709 324.184 467.394 324.52 467.16 324.968C466.925 325.405 466.808 325.944 466.808 326.584C466.808 327.533 467.048 328.269 467.528 328.792C468.018 329.304 468.632 329.56 469.368 329.56ZM480.195 322.04C480.888 322.04 481.507 322.184 482.051 322.472C482.606 322.76 483.038 323.187 483.347 323.752C483.656 324.317 483.811 325 483.811 325.8V331H482.003V326.072C482.003 325.283 481.806 324.68 481.411 324.264C481.016 323.837 480.478 323.624 479.795 323.624C479.112 323.624 478.568 323.837 478.163 324.264C477.768 324.68 477.571 325.283 477.571 326.072V331H475.747V322.184H477.571V323.192C477.87 322.829 478.248 322.547 478.707 322.344C479.176 322.141 479.672 322.04 480.195 322.04ZM485.53 326.552C485.53 325.667 485.711 324.883 486.074 324.2C486.447 323.517 486.948 322.989 487.578 322.616C488.218 322.232 488.922 322.04 489.69 322.04C490.383 322.04 490.986 322.179 491.498 322.456C492.02 322.723 492.436 323.059 492.746 323.464V322.184H494.586V331H492.746V329.688C492.436 330.104 492.015 330.451 491.482 330.728C490.948 331.005 490.34 331.144 489.658 331.144C488.9 331.144 488.207 330.952 487.578 330.568C486.948 330.173 486.447 329.629 486.074 328.936C485.711 328.232 485.53 327.437 485.53 326.552ZM492.746 326.584C492.746 325.976 492.618 325.448 492.362 325C492.116 324.552 491.791 324.211 491.386 323.976C490.98 323.741 490.543 323.624 490.074 323.624C489.604 323.624 489.167 323.741 488.762 323.976C488.356 324.2 488.026 324.536 487.77 324.984C487.524 325.421 487.402 325.944 487.402 326.552C487.402 327.16 487.524 327.693 487.77 328.152C488.026 328.611 488.356 328.963 488.762 329.208C489.178 329.443 489.615 329.56 490.074 329.56C490.543 329.56 490.98 329.443 491.386 329.208C491.791 328.973 492.116 328.632 492.362 328.184C492.618 327.725 492.746 327.192 492.746 326.584ZM500.181 331.144C499.488 331.144 498.864 331.021 498.309 330.776C497.765 330.52 497.333 330.179 497.013 329.752C496.693 329.315 496.523 328.829 496.501 328.296H498.389C498.421 328.669 498.597 328.984 498.917 329.24C499.248 329.485 499.659 329.608 500.149 329.608C500.661 329.608 501.056 329.512 501.333 329.32C501.621 329.117 501.765 328.861 501.765 328.552C501.765 328.221 501.605 327.976 501.285 327.816C500.976 327.656 500.48 327.48 499.797 327.288C499.136 327.107 498.597 326.931 498.181 326.76C497.765 326.589 497.403 326.328 497.093 325.976C496.795 325.624 496.645 325.16 496.645 324.584C496.645 324.115 496.784 323.688 497.061 323.304C497.339 322.909 497.733 322.6 498.245 322.376C498.768 322.152 499.365 322.04 500.037 322.04C501.04 322.04 501.845 322.296 502.453 322.808C503.072 323.309 503.403 323.997 503.445 324.872H501.621C501.589 324.477 501.429 324.163 501.141 323.928C500.853 323.693 500.464 323.576 499.973 323.576C499.493 323.576 499.125 323.667 498.869 323.848C498.613 324.029 498.485 324.269 498.485 324.568C498.485 324.803 498.571 325 498.741 325.16C498.912 325.32 499.12 325.448 499.365 325.544C499.611 325.629 499.973 325.741 500.453 325.88C501.093 326.051 501.616 326.227 502.021 326.408C502.437 326.579 502.795 326.835 503.093 327.176C503.392 327.517 503.547 327.971 503.557 328.536C503.557 329.037 503.419 329.485 503.141 329.88C502.864 330.275 502.469 330.584 501.957 330.808C501.456 331.032 500.864 331.144 500.181 331.144ZM506.456 321.016C506.125 321.016 505.848 320.904 505.624 320.68C505.4 320.456 505.288 320.179 505.288 319.848C505.288 319.517 505.4 319.24 505.624 319.016C505.848 318.792 506.125 318.68 506.456 318.68C506.776 318.68 507.048 318.792 507.272 319.016C507.496 319.24 507.608 319.517 507.608 319.848C507.608 320.179 507.496 320.456 507.272 320.68C507.048 320.904 506.776 321.016 506.456 321.016ZM507.352 322.184V331H505.528V322.184H507.352ZM517.567 331.112C516.82 331.112 516.148 330.984 515.551 330.728C514.954 330.461 514.484 330.088 514.143 329.608C513.802 329.128 513.631 328.568 513.631 327.928H515.583C515.626 328.408 515.812 328.803 516.143 329.112C516.484 329.421 516.959 329.576 517.567 329.576C518.196 329.576 518.687 329.427 519.039 329.128C519.391 328.819 519.567 328.424 519.567 327.944C519.567 327.571 519.455 327.267 519.231 327.032C519.018 326.797 518.746 326.616 518.415 326.488C518.095 326.36 517.647 326.221 517.071 326.072C516.346 325.88 515.754 325.688 515.295 325.496C514.847 325.293 514.463 324.984 514.143 324.568C513.823 324.152 513.663 323.597 513.663 322.904C513.663 322.264 513.823 321.704 514.143 321.224C514.463 320.744 514.911 320.376 515.487 320.12C516.063 319.864 516.73 319.736 517.487 319.736C518.564 319.736 519.444 320.008 520.127 320.552C520.82 321.085 521.204 321.821 521.279 322.76H519.263C519.231 322.355 519.039 322.008 518.687 321.72C518.335 321.432 517.871 321.288 517.295 321.288C516.772 321.288 516.346 321.421 516.015 321.688C515.684 321.955 515.519 322.339 515.519 322.84C515.519 323.181 515.62 323.464 515.823 323.688C516.036 323.901 516.303 324.072 516.623 324.2C516.943 324.328 517.38 324.467 517.935 324.616C518.671 324.819 519.268 325.021 519.727 325.224C520.196 325.427 520.591 325.741 520.911 326.168C521.242 326.584 521.407 327.144 521.407 327.848C521.407 328.413 521.252 328.947 520.943 329.448C520.644 329.949 520.202 330.355 519.615 330.664C519.039 330.963 518.356 331.112 517.567 331.112ZM531.639 326.376C531.639 326.707 531.618 327.005 531.575 327.272H524.839C524.893 327.976 525.154 328.541 525.623 328.968C526.093 329.395 526.669 329.608 527.351 329.608C528.333 329.608 529.026 329.197 529.431 328.376H531.399C531.133 329.187 530.647 329.853 529.943 330.376C529.25 330.888 528.386 331.144 527.351 331.144C526.509 331.144 525.751 330.957 525.079 330.584C524.418 330.2 523.895 329.667 523.511 328.984C523.138 328.291 522.951 327.491 522.951 326.584C522.951 325.677 523.133 324.883 523.495 324.2C523.869 323.507 524.386 322.973 525.047 322.6C525.719 322.227 526.487 322.04 527.351 322.04C528.183 322.04 528.925 322.221 529.575 322.584C530.226 322.947 530.733 323.459 531.095 324.12C531.458 324.771 531.639 325.523 531.639 326.376ZM529.735 325.8C529.725 325.128 529.485 324.589 529.015 324.184C528.546 323.779 527.965 323.576 527.271 323.576C526.642 323.576 526.103 323.779 525.655 324.184C525.207 324.579 524.941 325.117 524.855 325.8H529.735ZM536.922 326.6L540.986 331H538.522L535.258 327.208V331H533.434V319.16H535.258V326.04L538.458 322.184H540.986L536.922 326.6ZM541.686 326.552C541.686 325.667 541.867 324.883 542.23 324.2C542.603 323.517 543.104 322.989 543.734 322.616C544.374 322.232 545.078 322.04 545.846 322.04C546.539 322.04 547.142 322.179 547.654 322.456C548.176 322.723 548.592 323.059 548.902 323.464V322.184H550.742V331H548.902V329.688C548.592 330.104 548.171 330.451 547.638 330.728C547.104 331.005 546.496 331.144 545.814 331.144C545.056 331.144 544.363 330.952 543.734 330.568C543.104 330.173 542.603 329.629 542.23 328.936C541.867 328.232 541.686 327.437 541.686 326.552ZM548.902 326.584C548.902 325.976 548.774 325.448 548.518 325C548.272 324.552 547.947 324.211 547.542 323.976C547.136 323.741 546.699 323.624 546.23 323.624C545.76 323.624 545.323 323.741 544.918 323.976C544.512 324.2 544.182 324.536 543.926 324.984C543.68 325.421 543.558 325.944 543.558 326.552C543.558 327.16 543.68 327.693 543.926 328.152C544.182 328.611 544.512 328.963 544.918 329.208C545.334 329.443 545.771 329.56 546.23 329.56C546.699 329.56 547.136 329.443 547.542 329.208C547.947 328.973 548.272 328.632 548.518 328.184C548.774 327.725 548.902 327.192 548.902 326.584ZM554.962 323.464C555.228 323.016 555.58 322.669 556.018 322.424C556.466 322.168 556.994 322.04 557.602 322.04V323.928H557.138C556.423 323.928 555.879 324.109 555.506 324.472C555.143 324.835 554.962 325.464 554.962 326.36V331H553.138V322.184H554.962V323.464ZM558.67 326.552C558.67 325.667 558.851 324.883 559.214 324.2C559.587 323.517 560.089 322.989 560.718 322.616C561.358 322.232 562.062 322.04 562.83 322.04C563.523 322.04 564.126 322.179 564.638 322.456C565.161 322.723 565.577 323.059 565.886 323.464V322.184H567.726V331H565.886V329.688C565.577 330.104 565.155 330.451 564.622 330.728C564.089 331.005 563.481 331.144 562.798 331.144C562.041 331.144 561.347 330.952 560.718 330.568C560.089 330.173 559.587 329.629 559.214 328.936C558.851 328.232 558.67 327.437 558.67 326.552ZM565.886 326.584C565.886 325.976 565.758 325.448 565.502 325C565.257 324.552 564.931 324.211 564.526 323.976C564.121 323.741 563.683 323.624 563.214 323.624C562.745 323.624 562.307 323.741 561.902 323.976C561.497 324.2 561.166 324.536 560.91 324.984C560.665 325.421 560.542 325.944 560.542 326.552C560.542 327.16 560.665 327.693 560.91 328.152C561.166 328.611 561.497 328.963 561.902 329.208C562.318 329.443 562.755 329.56 563.214 329.56C563.683 329.56 564.121 329.443 564.526 329.208C564.931 328.973 565.257 328.632 565.502 328.184C565.758 327.725 565.886 327.192 565.886 326.584ZM574.57 322.04C575.263 322.04 575.882 322.184 576.426 322.472C576.981 322.76 577.413 323.187 577.722 323.752C578.031 324.317 578.186 325 578.186 325.8V331H576.378V326.072C576.378 325.283 576.181 324.68 575.786 324.264C575.391 323.837 574.853 323.624 574.17 323.624C573.487 323.624 572.943 323.837 572.538 324.264C572.143 324.68 571.946 325.283 571.946 326.072V331H570.122V322.184H571.946V323.192C572.245 322.829 572.623 322.547 573.082 322.344C573.551 322.141 574.047 322.04 574.57 322.04ZM584.065 322.04C584.747 322.04 585.35 322.179 585.873 322.456C586.406 322.723 586.822 323.059 587.121 323.464V322.184H588.961V331.144C588.961 331.955 588.79 332.675 588.449 333.304C588.107 333.944 587.611 334.445 586.961 334.808C586.321 335.171 585.553 335.352 584.657 335.352C583.462 335.352 582.47 335.069 581.681 334.504C580.891 333.949 580.443 333.192 580.337 332.232H582.145C582.283 332.691 582.577 333.059 583.025 333.336C583.483 333.624 584.027 333.768 584.657 333.768C585.393 333.768 585.985 333.544 586.433 333.096C586.891 332.648 587.121 331.997 587.121 331.144V329.672C586.811 330.088 586.39 330.44 585.857 330.728C585.334 331.005 584.737 331.144 584.065 331.144C583.297 331.144 582.593 330.952 581.953 330.568C581.323 330.173 580.822 329.629 580.449 328.936C580.086 328.232 579.905 327.437 579.905 326.552C579.905 325.667 580.086 324.883 580.449 324.2C580.822 323.517 581.323 322.989 581.953 322.616C582.593 322.232 583.297 322.04 584.065 322.04ZM587.121 326.584C587.121 325.976 586.993 325.448 586.737 325C586.491 324.552 586.166 324.211 585.761 323.976C585.355 323.741 584.918 323.624 584.449 323.624C583.979 323.624 583.542 323.741 583.137 323.976C582.731 324.2 582.401 324.536 582.145 324.984C581.899 325.421 581.777 325.944 581.777 326.552C581.777 327.16 581.899 327.693 582.145 328.152C582.401 328.611 582.731 328.963 583.137 329.208C583.553 329.443 583.99 329.56 584.449 329.56C584.918 329.56 585.355 329.443 585.761 329.208C586.166 328.973 586.491 328.632 586.737 328.184C586.993 327.725 587.121 327.192 587.121 326.584Z" fill="#46B654"/>
</g>
<defs>
<clipPath id="clip0_1238_955">
<rect width="1242" height="460" rx="25" fill="white"/>
</clipPath>
</defs>
</svg>
